<svg width="32" height="32" viewBox="0 0 32 32" fill="none" xmlns="http://www.w3.org/2000/svg">
<path d="M15.9974 2.66602C8.63739 2.66602 2.66406 8.63935 2.66406 15.9993C2.66406 23.3593 8.63739 29.3327 15.9974 29.3327C23.3574 29.3327 29.3307 23.3593 29.3307 15.9993C29.3307 8.63935 23.3574 2.66602 15.9974 2.66602ZM22.1841 11.7327C21.9841 13.8393 21.1174 18.9593 20.6774 21.3193C20.4907 22.3193 20.1174 22.6527 19.7707 22.6927C18.9974 22.7593 18.4107 22.186 17.6641 21.6927C16.4907 20.9193 15.8241 20.4393 14.6907 19.6927C13.3707 18.826 14.2241 18.346 14.9841 17.5727C15.1841 17.3727 18.5974 14.266 18.6641 13.986C18.6733 13.9436 18.6721 13.8996 18.6605 13.8578C18.6489 13.8159 18.6272 13.7776 18.5974 13.746C18.5174 13.6793 18.4107 13.706 18.3174 13.7193C18.1974 13.746 16.3307 14.986 12.6907 17.4393C12.1574 17.7993 11.6774 17.986 11.2507 17.9727C10.7707 17.9593 9.86406 17.706 9.18406 17.4793C8.34406 17.2127 7.69073 17.066 7.74406 16.5993C7.77073 16.3593 8.10406 16.1193 8.73073 15.866C12.6241 14.1727 15.2107 13.0527 16.5041 12.5193C20.2107 10.9727 20.9707 10.706 21.4774 10.706C21.5841 10.706 21.8374 10.7327 21.9974 10.866C22.1307 10.9727 22.1707 11.1193 22.1841 11.226C22.1707 11.306 22.1974 11.546 22.1841 11.7327Z" fill="white"/>
</svg>
