<svg width="32" height="32" viewBox="0 0 32 32" fill="none" xmlns="http://www.w3.org/2000/svg">
<g clip-path="url(#clip0_419_700)">
<rect width="32" height="32" rx="16" fill="black"/>
<path fill-rule="evenodd" clip-rule="evenodd" d="M14.2623 0.0391336C7.11975 0.954279 1.8104 5.77442 0.227127 12.7808C0.0661282 13.4936 -0.00237864 14.5004 6.29064e-05 16.122C0.00322255 18.1512 0.0504736 18.6214 0.376061 19.8635C2.03416 26.1869 6.84371 30.6737 13.169 31.798C14.7158 32.0729 17.8324 32.066 19.1719 31.7848C22.4873 31.0887 25.1121 29.6565 27.4035 27.2935C31.3502 23.2235 32.8865 17.4858 31.4992 11.9975C30.0048 6.08614 25.1027 1.46835 19.0894 0.307338C17.8937 0.0764125 15.1575 -0.0756041 14.2623 0.0391336ZM16.9622 2.92948C17.0041 3.36276 17.0301 3.37683 18.1985 3.59963C20.4128 4.02188 22.683 5.19972 24.4147 6.82476C26.3702 8.65984 27.6768 10.9717 28.243 13.5976L28.5525 15.0331L29.1629 15.0335L29.7733 15.0341V16.0495V17.0648H29.1481H28.5228L28.3599 18.0611C27.7015 22.0875 25.0894 25.5994 21.3392 27.5002C20.1174 28.1194 18.3022 28.6692 17.4791 28.6692C17.0271 28.6692 17.0057 28.6947 16.9633 29.2856L16.9193 29.9021H15.9857H15.0522L15.008 29.3631C14.967 28.8663 14.9222 28.817 14.4335 28.7326C11.3326 28.1963 9.22422 27.1718 7.19846 25.2172C5.05248 23.1464 3.94747 20.921 3.42067 17.6088C3.33766 17.0866 3.31137 17.0648 2.76619 17.0648H2.19817V16.0577V15.0508L2.80856 15.0061L3.41894 14.9616L3.52436 13.9975C3.8162 11.3288 5.59465 8.1813 7.892 6.26746C9.5613 4.87683 12.1657 3.70987 14.0828 3.49359C14.9379 3.39713 14.9804 3.37363 14.9804 3.00012C14.9804 2.44616 15.0756 2.39684 16.0516 2.44456C16.9032 2.48619 16.9201 2.49519 16.9622 2.92948ZM13.3287 5.66955C10.7736 6.32519 8.34081 8.12633 6.86684 10.4536C6.23232 11.4553 5.55501 13.2507 5.418 14.2939L5.32077 15.0341H6.41644H7.51212V16.0495V17.0648H6.43497C5.42302 17.0648 5.35782 17.084 5.35782 17.3819C5.35782 18.0976 5.85173 19.6858 6.4772 20.9813C7.89056 23.9089 11.0696 26.2398 14.2982 26.7159L14.9804 26.8164V25.567V24.3175H15.9857H16.9911V25.5469V26.7762L17.4578 26.6918C19.9649 26.2383 21.4957 25.4408 23.2519 23.6735C25.0282 21.886 26.0422 19.9458 26.3801 17.6877L26.4714 17.0776L25.4295 17.035L24.3875 16.9923V16.0495V15.1066L25.3929 15.0341L26.3982 14.9616L26.3484 14.4597C26.2046 13.0138 25.1806 10.6669 24.1191 9.35087C23.4171 8.4804 22.0642 7.33781 20.9972 6.71437C20.2092 6.25383 18.5389 5.66201 17.645 5.52667L17.0037 5.42948L16.9615 6.56917L16.9193 7.70886L15.9498 7.7518L14.9804 7.79459V6.62763V5.46053L14.5136 5.47286C14.257 5.47967 13.7237 5.56816 13.3287 5.66955ZM22.0698 11.0851C22.1077 11.1472 21.5888 11.8 20.9165 12.5357L19.6944 13.8737H14.824C10.8257 13.8737 9.95367 13.8386 9.95367 13.6774C9.95367 13.5695 10.4766 12.9167 11.1156 12.2269L12.2774 10.9726H17.1391C19.8131 10.9726 22.0318 11.0232 22.0698 11.0851ZM20.6146 16.3003C21.3074 16.9967 21.8742 17.6596 21.8742 17.7733C21.8742 17.9469 21.5591 17.9649 19.9126 17.8851C18.8337 17.8329 16.7494 17.7888 15.2808 17.7874L12.6106 17.7846L11.2822 16.5415C10.5514 15.8578 9.95367 15.2391 9.95367 15.1662C9.95367 15.0894 11.9205 15.0341 14.6544 15.0341H19.3551L20.6146 16.3003ZM21.9856 19.2156C22.0205 19.3214 21.503 19.9595 20.8356 20.6336L19.622 21.8592L14.9728 21.8476C11.7743 21.8396 10.2632 21.7855 10.1302 21.6739C9.97564 21.5444 10.1906 21.2541 11.2019 20.2277L12.467 18.9437L17.1946 18.9833C20.9682 19.0151 21.9351 19.0619 21.9856 19.2156Z" fill="black"/>
<path fill-rule="evenodd" clip-rule="evenodd" d="M14.2623 0.0391336C7.11975 0.954279 1.8104 5.77442 0.227127 12.7808C0.0661282 13.4936 -0.00237864 14.5004 6.29064e-05 16.122C0.00322255 18.1512 0.0504736 18.6214 0.376061 19.8635C2.03416 26.1869 6.84371 30.6737 13.169 31.798C14.7158 32.0729 17.8324 32.066 19.1719 31.7848C22.4873 31.0887 25.1121 29.6565 27.4035 27.2935C31.3502 23.2235 32.8865 17.4858 31.4992 11.9975C30.0048 6.08614 25.1027 1.46835 19.0894 0.307338C17.8937 0.0764125 15.1575 -0.0756041 14.2623 0.0391336ZM16.9622 2.92948C17.0041 3.36276 17.0301 3.37683 18.1985 3.59963C20.4128 4.02188 22.683 5.19972 24.4147 6.82476C26.3702 8.65984 27.6768 10.9717 28.243 13.5976L28.5525 15.0331L29.1629 15.0335L29.7733 15.0341V16.0495V17.0648H29.1481H28.5228L28.3599 18.0611C27.7015 22.0875 25.0894 25.5994 21.3392 27.5002C20.1174 28.1194 18.3022 28.6692 17.4791 28.6692C17.0271 28.6692 17.0057 28.6947 16.9633 29.2856L16.9193 29.9021H15.9857H15.0522L15.008 29.3631C14.967 28.8663 14.9222 28.817 14.4335 28.7326C11.3326 28.1963 9.22422 27.1718 7.19846 25.2172C5.05248 23.1464 3.94747 20.921 3.42067 17.6088C3.33766 17.0866 3.31137 17.0648 2.76619 17.0648H2.19817V16.0577V15.0508L2.80856 15.0061L3.41894 14.9616L3.52436 13.9975C3.8162 11.3288 5.59465 8.1813 7.892 6.26746C9.5613 4.87683 12.1657 3.70987 14.0828 3.49359C14.9379 3.39713 14.9804 3.37363 14.9804 3.00012C14.9804 2.44616 15.0756 2.39684 16.0516 2.44456C16.9032 2.48619 16.9201 2.49519 16.9622 2.92948ZM13.3287 5.66955C10.7736 6.32519 8.34081 8.12633 6.86684 10.4536C6.23232 11.4553 5.55501 13.2507 5.418 14.2939L5.32077 15.0341H6.41644H7.51212V16.0495V17.0648H6.43497C5.42302 17.0648 5.35782 17.084 5.35782 17.3819C5.35782 18.0976 5.85173 19.6858 6.4772 20.9813C7.89056 23.9089 11.0696 26.2398 14.2982 26.7159L14.9804 26.8164V25.567V24.3175H15.9857H16.9911V25.5469V26.7762L17.4578 26.6918C19.9649 26.2383 21.4957 25.4408 23.2519 23.6735C25.0282 21.886 26.0422 19.9458 26.3801 17.6877L26.4714 17.0776L25.4295 17.035L24.3875 16.9923V16.0495V15.1066L25.3929 15.0341L26.3982 14.9616L26.3484 14.4597C26.2046 13.0138 25.1806 10.6669 24.1191 9.35087C23.4171 8.4804 22.0642 7.33781 20.9972 6.71437C20.2092 6.25383 18.5389 5.66201 17.645 5.52667L17.0037 5.42948L16.9615 6.56917L16.9193 7.70886L15.9498 7.7518L14.9804 7.79459V6.62763V5.46053L14.5136 5.47286C14.257 5.47967 13.7237 5.56816 13.3287 5.66955ZM22.0698 11.0851C22.1077 11.1472 21.5888 11.8 20.9165 12.5357L19.6944 13.8737H14.824C10.8257 13.8737 9.95367 13.8386 9.95367 13.6774C9.95367 13.5695 10.4766 12.9167 11.1156 12.2269L12.2774 10.9726H17.1391C19.8131 10.9726 22.0318 11.0232 22.0698 11.0851ZM20.6146 16.3003C21.3074 16.9967 21.8742 17.6596 21.8742 17.7733C21.8742 17.9469 21.5591 17.9649 19.9126 17.8851C18.8337 17.8329 16.7494 17.7888 15.2808 17.7874L12.6106 17.7846L11.2822 16.5415C10.5514 15.8578 9.95367 15.2391 9.95367 15.1662C9.95367 15.0894 11.9205 15.0341 14.6544 15.0341H19.3551L20.6146 16.3003ZM21.9856 19.2156C22.0205 19.3214 21.503 19.9595 20.8356 20.6336L19.622 21.8592L14.9728 21.8476C11.7743 21.8396 10.2632 21.7855 10.1302 21.6739C9.97564 21.5444 10.1906 21.2541 11.2019 20.2277L12.467 18.9437L17.1946 18.9833C20.9682 19.0151 21.9351 19.0619 21.9856 19.2156Z" fill="url(#paint0_linear_419_700)"/>
</g>
<defs>
<linearGradient id="paint0_linear_419_700" x1="0" y1="0" x2="32" y2="32" gradientUnits="userSpaceOnUse">
<stop stop-color="#00FFA3"/>
<stop offset="1" stop-color="#DC1FFF"/>
</linearGradient>
<clipPath id="clip0_419_700">
<rect width="32" height="32" rx="16" fill="white"/>
</clipPath>
</defs>
</svg>
