<svg width="96" height="96" viewBox="0 0 96 96" fill="none" xmlns="http://www.w3.org/2000/svg">
<path fill-rule="evenodd" clip-rule="evenodd" d="M45.3115 0.134219C44.6345 0.396748 44.3906 0.9506 44.3853 2.23929C44.3812 3.18198 44.029 3.36417 41.7286 3.61388C36.3408 4.1987 28.5945 7.24525 23.0945 10.9424C13.0748 17.6779 5.39095 30.2484 4.44615 41.4495C4.2474 43.8065 4.12414 43.9113 1.55216 43.9113H0V47.5407V51.1701H1.65106C3.72446 51.1701 3.93721 51.3908 4.33085 53.9527C5.01178 58.3818 6.88499 64.5003 8.6248 67.9768C9.77608 70.2776 11.9009 73.511 13.6219 75.5807C15.9857 78.4235 19.9528 82.1674 22.6927 84.1409C27.757 87.7887 35.8488 90.9754 42.5246 91.9512C44.2355 92.2011 44.3496 92.3853 44.6803 95.4291C44.7432 96.0094 44.7637 96.0135 47.397 95.9951C51.846 95.9641 51.3725 96.1214 51.4053 94.6629C51.421 93.9643 51.503 93.0698 51.5872 92.6754C51.7375 91.972 51.7828 91.9526 53.9105 91.6833C62.7953 90.558 72.2936 85.5191 79.2381 78.2467C85.558 71.6285 89.4768 63.8739 91.1182 54.7391L91.7594 51.1701H93.8798H96V47.5407V43.9113H93.8849H91.7697L91.0857 40.5843C89.4602 32.6803 86.5922 26.2882 82.0523 20.4503C75.5149 12.0443 65.7829 6.05141 55.2642 3.9548C53.7537 3.6538 52.3087 3.23739 52.053 3.02954C51.7845 2.81153 51.5291 2.21413 51.4492 1.61672C51.3701 1.02464 51.1444 0.493049 50.9217 0.374487C50.2963 0.0415471 46.0228 -0.141376 45.3115 0.134219ZM54.2714 11.0189C58.0197 11.6582 64.0675 14.0558 67.0804 16.097C71.3883 19.0157 75.6063 23.0408 77.7315 26.2613C80.8347 30.9636 83.5403 37.8104 84.0523 42.2555C84.2086 43.6115 84.2036 43.6257 83.5321 43.7566C83.1594 43.8292 81.5788 43.9613 80.0201 44.0501L77.1859 44.2113V47.5346V50.8582L78.8141 51.0124C79.7094 51.0973 81.3443 51.1675 82.4469 51.1684L84.4518 51.1701L84.295 52.3194C83.6761 56.8599 81.9355 62.0974 79.8665 65.6443C76.7797 70.936 70.9959 76.9691 65.9621 80.1478C63.0481 81.9879 58.4247 83.6845 54.0958 84.5026L51.6289 84.9686L51.5631 80.712L51.4975 76.4552H48H44.5025L44.4367 80.75C44.36 85.7456 44.7741 85.3028 40.8847 84.5498C31.7753 82.7864 22.6181 76.7117 17.3702 68.9507C15.0915 65.5804 12.824 60.3475 11.6705 55.7969C10.9536 52.9681 10.9237 51.7632 11.562 51.4206C11.8186 51.2829 13.501 51.1701 15.3007 51.1701H18.5729V47.5407V43.9113H14.7548H10.9368L11.151 42.278C11.7926 37.3875 14.1617 31.2477 17.0648 26.9516C22.3948 19.0639 31.57 12.7666 40.1251 11.1246C41.163 10.9255 42.5454 10.7624 43.1971 10.7624H44.3819V14.7916V18.8207L47.8191 18.6647C49.7097 18.5788 51.2835 18.5079 51.3166 18.5069C51.3496 18.5059 51.3769 17.7053 51.3769 16.7278C51.3769 15.75 51.4473 13.9553 51.5332 12.7397C51.6808 10.6562 51.7189 10.5357 52.1965 10.6402C52.4753 10.7014 53.409 10.8718 54.2714 11.0189Z" fill="black"/>
</svg>
